<?xml version="1.0" encoding="iso-8859-1"?>
<!-- Uploaded to: SVG Repo, www.svgrepo.com, Transformed by: SVG Repo Tools -->
<svg height="800px" width="800px" version="1.1" id="Layer_1" xmlns="http://www.w3.org/2000/svg" xmlns:xlink="http://www.w3.org/1999/xlink" 
	 viewBox="0 0 512.015 512.015" xml:space="preserve">
<circle style="fill:#49DB95;" cx="256.007" cy="256.007" r="256.007"/>
<circle style="fill:#F2F2F2;" cx="256.007" cy="256.007" r="201.106"/>
<path style="fill:#CCCCCC;" d="M256.001,54.891c-5.372,0-10.693,0.215-15.958,0.629c103.608,8.134,185.151,94.782,185.151,200.481
	s-81.542,192.345-185.151,200.481c5.265,0.414,10.587,0.629,15.958,0.629c111.07,0,201.11-90.039,201.11-201.11
	S367.07,54.891,256.001,54.891z"/>
<path style="fill:#3BBC7B;" d="M255.999,467.085c-116.393,0-211.085-94.693-211.085-211.085S139.608,44.916,255.999,44.916
	c116.393,0,211.085,94.692,211.085,211.085S372.392,467.085,255.999,467.085z M255.999,64.866
	c-105.393,0-191.135,85.742-191.135,191.135s85.742,191.135,191.135,191.135s191.135-85.744,191.135-191.135
	S361.392,64.866,255.999,64.866z"/>
<path style="fill:#73CAEF;" d="M115.953,288.64c-4.808,0-9.041-3.485-9.835-8.383c-0.88-5.438,2.816-10.56,8.254-11.44
	l140.036-22.663c5.442-0.879,10.56,2.816,11.44,8.254c0.879,5.438-2.814,10.56-8.254,11.44l-140.035,22.663
	C117.018,288.597,116.482,288.64,115.953,288.64z"/>
<path style="fill:#3B94BC;" d="M238.126,238.614l3.141-3.141l67.391-67.391c9.738-9.738,25.528-9.738,35.266,0l0,0
	c9.738,9.738,9.738,25.528,0,35.266l-52.655,52.655"/>
<path style="fill:#47A7DD;" d="M375.047,375.047L375.047,375.047c9.738-9.738,9.738-25.526,0-35.264L273.391,238.127
	c-9.738-9.738-25.526-9.738-35.264,0l0,0c-9.738,9.738-9.738,25.526,0,35.264l101.656,101.655
	C349.521,384.785,365.309,384.785,375.047,375.047z"/>
<g>
</g>
<g>
</g>
<g>
</g>
<g>
</g>
<g>
</g>
<g>
</g>
<g>
</g>
<g>
</g>
<g>
</g>
<g>
</g>
<g>
</g>
<g>
</g>
<g>
</g>
<g>
</g>
<g>
</g>
</svg>